<?xml version="1.0" encoding="UTF-8"?>
<svg width="156px" height="19px" viewBox="0 0 156 19" version="1.1" xmlns="http://www.w3.org/2000/svg" xmlns:xlink="http://www.w3.org/1999/xlink">
    <!-- Generator: Sketch 55.2 (78181) - https://sketchapp.com -->
    <title>Combined Shape</title>
    <desc>Created with Sketch.</desc>
    <g id="Page-1" stroke="none" stroke-width="1" fill="none" fill-rule="evenodd">
        <path d="M93.0578718,0 L107.561571,0 L107.583985,0 C110.478804,0.679903457 111.926214,2.34657012 111.926214,5 C111.926214,7.65328088 110.478967,9.15326142 107.584473,9.49994161 L107.983985,9.49994161 C111.306294,9.56072496 112.967449,11.0474293 112.967449,13.9600548 C112.967449,16.8726802 111.306294,18.552662 107.983985,19 L107.561571,19 L93.0578718,19 L75.5194314,19 L75.5194314,0 L93.0578718,0 Z M93.0578718,5.97811785 L81.1570108,5.97811785 L81.1570108,7.67311914 L87.7825111,7.67311914 L87.7825111,10.9234129 L81.1570108,10.9234129 L81.1570108,13.0625802 L93.0578718,13.0625802 L93.0578718,5.97811785 Z M-2.27373675e-13,0.535002342 L9.85393952,0.535002342 L14.0007729,8.09476365 L17.9284275,0.535002342 L24.0891098,0.535002342 L24.0891098,18.5027046 L17.9284275,18.5027046 L17.9284275,11.0769707 L14.0007729,18.5027046 L9.85393952,11.0769707 L9.85393952,18.5027046 L3.80666505,18.5027046 L3.80666505,5.92550393 L-2.27373675e-13,5.92550393 L-2.27373675e-13,0.535002342 Z M35.5,19 C28.0718716,19 25,14.7467051 25,9.5 C25,4.25329488 28.2089552,0 35.5,0 C42.7910448,0 46,4.25329488 46,9.5 C46,14.7467051 42.9281284,19 35.5,19 Z M35.5,14 C38.1570901,14 39.5,11.9852814 39.5,9.5 C39.5,7.01471863 38.2002725,5 35.5,5 C32.7997275,5 31.5,7.01471863 31.5,9.5 C31.5,11.9852814 32.8429099,14 35.5,14 Z M123.5,19 C116.071872,19 113,14.7467051 113,9.5 C113,4.25329488 116.208955,0 123.5,0 C130.791045,0 134,4.25329488 134,9.5 C134,14.7467051 130.928128,19 123.5,19 Z M123.5,14 C126.15709,14 127.5,11.9852814 127.5,9.5 C127.5,7.01471863 126.200272,5 123.5,5 C120.799728,5 119.5,7.01471863 119.5,9.5 C119.5,11.9852814 120.84291,14 123.5,14 Z M44.9610366,0 L51.7877062,0 L56.4857365,14 L61.2967289,0 L68.0104363,0 L61.2967289,19 L51.7877062,19 L44.9610366,0 Z M68.0104363,19 L68.0104363,0 L74.0295831,0 L74.0295831,19 L68.0104363,19 Z M99.5101458,4.69998582 L99.5101458,7.61364384 L103.889484,7.61364384 C104.727942,7.39547352 105.147171,6.90986385 105.147171,6.15681483 C105.147171,5.40376581 104.727942,4.91815614 103.889484,4.69998582 L99.5101458,4.69998582 Z M99.5,11.5 L99.5,14.7 L104.938216,14.7 C105.979405,14.4603888 106.5,13.9270555 106.5,13.1 C106.5,12.2729445 105.979405,11.7396112 104.938216,11.5 L99.5,11.5 Z M143.953247,6.00684141 L144,6.00684141 L148.000823,0 L155.828814,0 L148.468257,9.5 L155.828814,19 L148.000823,19 L144,13.100387 L143.953247,13.100387 L139.952424,19 L132.124433,19 L139.48499,9.5 L132.124433,0 L139.952424,0 L143.953247,6.00684141 Z" id="Combined-Shape" fill="#FCD052"></path>
    </g>
</svg>